<?xml version="1.0" encoding="UTF-8" standalone="no"?>
<!-- Created with Inkscape (http://www.inkscape.org/) -->

<svg
   xmlns:dc="http://purl.org/dc/elements/1.1/"
   xmlns:cc="http://creativecommons.org/ns#"
   xmlns:rdf="http://www.w3.org/1999/02/22-rdf-syntax-ns#"
   xmlns:svg="http://www.w3.org/2000/svg"
   xmlns="http://www.w3.org/2000/svg"
   xmlns:sodipodi="http://sodipodi.sourceforge.net/DTD/sodipodi-0.dtd"
   xmlns:inkscape="http://www.inkscape.org/namespaces/inkscape"
   version="1.1"
   id="svg2"
   xml:space="preserve"
   width="2133.3333"
   height="711.10669"
   viewBox="0 0 2133.3333 711.10669"
   sodipodi:docname="RedLogo.svg"
   inkscape:version="0.92.5 (2060ec1f9f, 2020-04-08)"><metadata
     id="metadata8"><rdf:RDF><cc:Work
         rdf:about=""><dc:format>image/svg+xml</dc:format><dc:type
           rdf:resource="http://purl.org/dc/dcmitype/StillImage" /><dc:title></dc:title></cc:Work></rdf:RDF></metadata><defs
     id="defs6" /><sodipodi:namedview
     pagecolor="#ffffff"
     bordercolor="#666666"
     borderopacity="1"
     objecttolerance="10"
     gridtolerance="10"
     guidetolerance="10"
     inkscape:pageopacity="0"
     inkscape:pageshadow="2"
     inkscape:window-width="1320"
     inkscape:window-height="636"
     id="namedview4"
     showgrid="false"
     inkscape:zoom="0.14484376"
     inkscape:cx="1066.6666"
     inkscape:cy="355.55334"
     inkscape:window-x="500"
     inkscape:window-y="680"
     inkscape:window-maximized="0"
     inkscape:current-layer="g10" /><g
     id="g10"
     inkscape:groupmode="layer"
     inkscape:label="ink_ext_XXXXXX"
     transform="matrix(1.3333333,0,0,-1.3333333,0,711.10667)"><g
       id="g12"
       transform="scale(0.1)"><path
         d="M 0,0 H 16000 V 5333.33 H 0 V 0"
         style="fill:#e22224;fill-opacity:1;fill-rule:nonzero;stroke:none"
         id="path14"
         inkscape:connector-curvature="0" /><path
         d="m 6970.45,3535.87 c -236.28,0 -505.06,-109.53 -669.3,-328.85 l 0.13,0.39 -0.13,-0.15 0.13,294.23 H 5737.54 V 1448.77 h 563.61 v 1167.97 c 0,210.24 162.95,433.67 464.71,433.67 233.26,0 474.56,-162.18 474.56,-433.67 V 1448.77 h 563.66 v 1272.47 c 0,472.03 -337.72,814.63 -833.63,814.63"
         style="fill:#ffffff;fill-opacity:1;fill-rule:nonzero;stroke:none"
         id="path16"
         inkscape:connector-curvature="0" /><path
         d="M 11810.2,3501.33 11300.6,2103.07 10791,3501.33 h -643.8 l 844.6,-2051.94 h 617.6 l 844.6,2051.94 h -643.8"
         style="fill:#ffffff;fill-opacity:1;fill-rule:nonzero;stroke:none"
         id="path18"
         inkscape:connector-curvature="0" /><path
         d="m 4054.83,2882.96 c 95.98,128.87 248.91,204.5 433.56,204.5 203.15,0 357.25,-116 436.87,-287.15 l -984.71,-408.53 c -26.95,209.59 26.7,373.59 114.28,491.18 z m 1082.89,-803.1 c -237.26,-175.53 -372.8,-217.48 -589.13,-217.48 -194.69,0 -347.07,60.45 -454.56,166.46 l 1441,597.82 c -31.42,222.8 -115.94,421.73 -246.09,573.04 -189.31,219.96 -469.58,336.27 -810.71,336.27 -619.81,0 -1087.19,-457.26 -1087.19,-1061.14 0,-619.5 468.42,-1060.97 1149.23,-1060.97 381.44,0 771.45,180.8 953.85,391.98 l -356.4,274.02"
         style="fill:#ffffff;fill-opacity:1;fill-rule:nonzero;stroke:none"
         id="path20"
         inkscape:connector-curvature="0" /><path
         d="M 3337.33,1966.3 H 2056.19 V 4115.26 H 1484.94 V 1448.77 h 1852.39 v 517.53"
         style="fill:#ffffff;fill-opacity:1;fill-rule:nonzero;stroke:none"
         id="path22"
         inkscape:connector-curvature="0" /><path
         d="m 13466.1,3052.95 c -314.8,0 -543.3,-238.52 -543.3,-577.94 0,-323.99 242.1,-577.85 550.9,-577.85 314.8,0 543.3,245.11 543.3,577.85 0,324.08 -242,577.94 -550.9,577.94 m 0,-1638.78 c -616.5,0 -1099.4,459.22 -1099.4,1060.84 0,594.91 486.3,1060.96 1107,1060.96 616.4,0 1099.3,-459.23 1099.3,-1060.96 0,-594.75 -486.2,-1060.84 -1106.9,-1060.84"
         style="fill:#ffffff;fill-opacity:1;fill-rule:nonzero;stroke:none"
         id="path24"
         inkscape:connector-curvature="0" /><path
         d="m 9126.44,3052.95 c -314.81,0 -543.26,-238.52 -543.26,-577.94 0,-323.99 242.05,-577.85 550.88,-577.85 314.81,0 543.32,245.11 543.32,577.85 0,324.08 -242.05,577.94 -550.94,577.94 m 0,-1638.78 c -616.44,0 -1099.37,459.22 -1099.37,1060.84 0,594.91 486.26,1060.96 1106.99,1060.96 616.39,0 1099.34,-459.23 1099.34,-1060.96 0,-594.75 -486.26,-1060.84 -1106.96,-1060.84"
         style="fill:#ffffff;fill-opacity:1;fill-rule:nonzero;stroke:none"
         id="path26"
         inkscape:connector-curvature="0" /></g></g></svg>